HIERARCHY
ROOT Hips
{
	OFFSET -29.380051 91.728088 330.575287
	CHANNELS 6 Xposition Yposition Zposition Zrotation Yrotation Xrotation 
	JOINT LeftUpLeg
	{
		OFFSET 0.103456 1.857840 10.548504
		CHANNELS 3 Zrotation Yrotation Xrotation
		JOINT LeftLeg
		{
			OFFSET 43.500004 -0.000034 -0.000008
			CHANNELS 3 Zrotation Yrotation Xrotation
			JOINT LeftFoot
			{
				OFFSET 42.372196 0.000008 -0.000002
				CHANNELS 3 Zrotation Yrotation Xrotation
				JOINT LeftToe
				{
					OFFSET 17.300014 0.000003 0.000004
					CHANNELS 3 Zrotation Yrotation Xrotation
					End Site
					{
						OFFSET 0.000000 0.000000 0.000000
					}
				}
			}
		}
	}
	JOINT RightUpLeg
	{
		OFFSET 0.103459 1.857840 -10.548506
		CHANNELS 3 Zrotation Yrotation Xrotation
		JOINT RightLeg
		{
			OFFSET 43.500042 -0.000034 0.000008
			CHANNELS 3 Zrotation Yrotation Xrotation
			JOINT RightFoot
			{
				OFFSET 42.372265 -0.000015 0.000013
				CHANNELS 3 Zrotation Yrotation Xrotation
				JOINT RightToe
				{
					OFFSET 17.299982 -0.000008 0.000011
					CHANNELS 3 Zrotation Yrotation Xrotation
					End Site
					{
						OFFSET 0.000000 0.000000 0.000000
					}
				}
			}
		}
	}
	JOINT Spine
	{
		OFFSET 6.901965 -2.603744 0.000002
		CHANNELS 3 Zrotation Yrotation Xrotation
		JOINT Spine1
		{
			OFFSET 12.588102 0.000003 0.000000
			CHANNELS 3 Zrotation Yrotation Xrotation
			JOINT Spine2
			{
				OFFSET 12.343206 -0.000003 0.000000
				CHANNELS 3 Zrotation Yrotation Xrotation
				JOINT Neck
				{
					OFFSET 25.832899 0.000011 -0.000003
					CHANNELS 3 Zrotation Yrotation Xrotation
					JOINT Head
					{
						OFFSET 11.766600 0.000020 0.000002
						CHANNELS 3 Zrotation Yrotation Xrotation
						End Site
						{
							OFFSET 0.000000 0.000000 0.000000
						}
					}
				}
				JOINT LeftShoulder
				{
					OFFSET 19.745911 -1.480356 6.000103
					CHANNELS 3 Zrotation Yrotation Xrotation
					JOINT LeftArm
					{
						OFFSET 11.284127 -0.000002 -0.000032
						CHANNELS 3 Zrotation Yrotation Xrotation
						JOINT LeftForeArm
						{
							OFFSET 33.000050 0.000004 0.000036
							CHANNELS 3 Zrotation Yrotation Xrotation
							JOINT LeftHand
							{
								OFFSET 25.200010 -0.000005 -0.000001
								CHANNELS 3 Zrotation Yrotation Xrotation
								End Site
								{
									OFFSET 0.000000 0.000000 0.000000
								}
							}
						}
					}
				}
				JOINT RightShoulder
				{
					OFFSET 19.746094 -1.480362 -6.000076
					CHANNELS 3 Zrotation Yrotation Xrotation
					JOINT RightArm
					{
						OFFSET 11.284138 -0.000014 -0.000009
						CHANNELS 3 Zrotation Yrotation Xrotation
						JOINT RightForeArm
						{
							OFFSET 33.000099 0.000006 0.000015
							CHANNELS 3 Zrotation Yrotation Xrotation
							JOINT RightHand
							{
								OFFSET 25.199768 0.000152 0.000415
								CHANNELS 3 Zrotation Yrotation Xrotation
								End Site
								{
									OFFSET 0.000000 0.000000 0.000000
								}
							}
						}
					}
				}
			}
		}
	}
}
MOTION
Frames: 5
Frame Time: 0.033333
11.22751 90.814583 -549.042603 97.521379 -5.03157 -149.792974 164.500352 -1.706403 -177.585069 -68.738334 -1.656852 -11.870568 74.635601 7.138073 -4.850062 21.454568 0.003101 1.9e-05 -179.002633 -2.199008 -168.343058 -25.564232 1.545623 3.839985 90.967478 -3.153166 -3.517097 21.454553 -0.003089 0.0 8.079255 0.883842 0.648757 6.156515 1.732105 1.343559 5.838339 1.740044 1.333073 -10.447214 9.734047 9.140021 -18.094609 -2.390068 13.627962 138.380097 -75.906672 41.044594 -6.674367 57.760697 15.241291 -46.690886 -13.5096 1.577632 9.70313 -9.544496 5.438407 179.790045 75.468092 1.175722 -26.678932 -50.848952 10.45867 -58.579527 19.577441 -2.358367 5.65115 0.824398 30.597212 
14.97993 90.954681 -550.9151 96.646514 -5.00627 -150.244996 161.646358 0.614396 -175.240442 -61.133875 -3.020615 -12.381477 77.446627 7.47317 -5.496456 21.454565 0.003104 1.9e-05 -175.535015 -1.734412 -168.922094 -22.783312 2.453877 3.511471 91.722959 -2.91195 -3.426924 21.454551 -0.00309 0.0 7.84758 0.523379 1.247117 5.693353 0.985136 2.518409 5.37554 1.00019 2.512415 -11.416001 8.479404 8.584913 -17.671453 -2.162083 12.554733 140.334515 -75.83307 39.068412 -0.388625 60.304854 24.552959 -40.618391 -12.571271 1.343162 11.167222 -7.107745 4.982905 178.306992 76.212624 -0.3252 -29.598382 -48.54491 13.192064 -60.194805 19.271222 -2.398258 5.540922 1.358771 28.466468 
18.87602 90.83252 -552.730591 95.650584 -4.906821 -150.595945 159.479685 2.3179 -173.512773 -50.982892 -4.163051 -13.381012 78.254707 8.101252 -6.183694 21.454558 0.003114 1.8e-05 -172.419315 -1.448595 -170.015184 -20.439408 3.198606 3.588526 92.588835 -2.91319 -3.122343 21.454553 -0.003091 -0.0 7.601575 0.166877 1.787682 5.194287 0.253914 3.581008 4.876858 0.275388 3.579404 -12.493423 6.580502 8.055574 -17.621898 -1.647766 11.152621 142.476312 -75.719682 36.903256 7.53359 61.732807 34.535117 -35.038379 -11.697141 1.14865 12.296304 -3.643044 6.90481 177.22397 77.136379 -1.408658 -31.418942 -46.129107 14.91542 -61.586224 19.102967 -2.440062 5.456551 1.365611 27.831947 
22.8375 90.521133 -554.491516 94.69864 -4.75472 -150.96106 158.540425 3.278897 -172.242399 -38.317218 -4.906562 -14.066423 76.845871 8.394118 -6.926388 21.454558 0.00311 1.9e-05 -169.593051 -1.319504 -171.547154 -18.625455 3.741963 3.943096 93.507769 -3.080617 -2.649086 21.454558 -0.003094 -1e-06 7.394249 -0.152691 2.234413 4.767998 -0.396521 4.460693 4.450926 -0.369742 4.462998 -13.521854 3.94478 7.57105 -17.988253 -1.003728 9.428457 144.633914 -75.434399 34.732694 16.564003 62.030193 44.38234 -30.264124 -11.199659 1.015887 13.125396 -0.56666 10.220588 176.777945 78.077771 -1.839185 -32.900362 -44.070204 16.93632 -62.732385 19.040564 -2.48036 5.52774 1.189388 28.192632 
26.875759 89.996552 -556.218811 93.89403 -4.570537 -151.198982 158.406772 4.045699 -170.786749 -24.594229 -4.928047 -14.377219 74.155931 8.579312 -6.819799 21.454558 0.003107 1.6e-05 -166.768631 -1.261703 -172.682386 -17.173259 4.175498 4.090335 94.484322 -3.119783 -2.213271 21.454555 -0.003091 0.0 7.23429 -0.425274 2.522353 4.435177 -0.945959 5.026851 4.118358 -0.915759 5.032452 -14.380354 0.666595 7.066165 -18.442858 -0.441516 7.401704 146.529401 -74.971367 32.838426 25.66978 61.382227 53.207505 -26.194474 -11.111611 0.937524 13.821148 1.336645 12.56869 176.640986 78.764321 -1.961008 -34.264716 -42.302811 19.373236 -63.332123 19.000466 -2.501145 5.729517 0.947563 28.764041 
